<?xml version="1.0" standalone="no"?>
<!DOCTYPE svg PUBLIC "-//W3C//DTD SVG 20010904//EN"
 "http://www.w3.org/TR/2001/REC-SVG-20010904/DTD/svg10.dtd">
<svg version="1.0" xmlns="http://www.w3.org/2000/svg"
 width="155.000000pt" height="155.000000pt" viewBox="0 0 155.000000 155.000000"
 preserveAspectRatio="xMidYMid meet">
<metadata>
Created by potrace 1.11, written by Peter Selinger 2001-2013
</metadata>
<g transform="translate(0.000000,155.000000) scale(0.100000,-0.100000)"
fill="#000000" stroke="none">
<path d="M714 1397 c4 -49 11 -98 17 -110 8 -19 8 -18 4 8 -2 17 -7 64 -11
105 -3 41 -8 77 -11 80 -3 3 -3 -35 1 -83z"/>
<path d="M774 1375 c0 -60 1 -84 3 -52 2 32 2 81 0 110 -2 29 -3 3 -3 -58z"/>
<path d="M826 1398 c-4 -46 -10 -94 -12 -108 -4 -19 -3 -21 4 -10 11 16 28
200 20 200 -3 0 -9 -37 -12 -82z"/>
<path d="M642 1460 c3 -8 15 -67 28 -130 13 -63 28 -119 33 -125 7 -7 8 -5 5
5 -3 8 -16 67 -28 130 -13 63 -27 120 -33 125 -7 7 -8 5 -5 -5z"/>
<path d="M896 1453 c-12 -31 -57 -255 -52 -260 2 -2 12 31 21 74 10 43 23 105
31 138 13 58 13 83 0 48z"/>
<path d="M582 1440 c3 -8 14 -41 24 -72 10 -32 21 -58 25 -58 10 0 -30 121
-44 135 -7 7 -8 5 -5 -5z"/>
<path d="M957 1443 c-10 -16 -47 -146 -43 -150 3 -4 19 42 51 145 5 13 -1 16
-8 5z"/>
<path d="M520 1421 c0 -5 7 -15 17 -22 15 -13 15 -12 4 9 -12 23 -21 28 -21
13z"/>
<path d="M1007 1403 c-8 -16 -18 -39 -21 -53 -6 -21 -5 -22 4 -7 16 25 41 87
35 87 -2 0 -11 -12 -18 -27z"/>
<path d="M431 1394 c-18 -8 -41 -14 -50 -14 -28 0 -55 -25 -45 -41 14 -23 11
-79 -5 -79 -10 0 -12 10 -8 38 4 37 4 39 -22 34 -50 -9 -94 -72 -58 -84 10 -4
386 -3 410 1 19 3 3 23 -41 51 -26 18 -57 47 -70 66 -12 19 -28 34 -35 35 -6
0 -19 2 -28 4 -8 1 -30 -4 -48 -11z m69 -70 l0 -64 -70 0 -70 0 0 50 c0 32 5
52 13 54 6 2 35 11 62 19 28 8 53 13 58 10 4 -2 7 -33 7 -69z m70 -39 c0 -18
-5 -25 -20 -25 -17 0 -20 7 -20 45 l0 45 20 -20 c11 -11 20 -31 20 -45z m-280
0 c0 -20 -5 -25 -25 -25 -29 0 -30 3 -13 30 18 28 38 25 38 -5z m350 -20 c0
-3 -13 -5 -30 -5 -23 0 -30 4 -30 20 0 20 1 20 30 5 17 -9 30 -18 30 -20z"/>
<path d="M1065 1390 c-3 -5 -2 -10 4 -10 5 0 13 5 16 10 3 6 2 10 -4 10 -5 0
-13 -4 -16 -10z"/>
<path d="M1010 1335 c-19 -14 -40 -25 -47 -25 -7 0 -13 -5 -13 -11 0 -5 -13
-15 -29 -20 -28 -10 -58 -50 -48 -66 4 -6 338 -10 406 -4 9 1 11 9 7 27 -9 34
-27 51 -61 60 -15 4 -51 20 -81 35 -65 35 -88 36 -134 4z m105 -5 c9 -10 22
-18 28 -17 6 1 11 -18 12 -45 l1 -48 -72 0 -71 0 -1 48 c-1 37 3 50 21 64 29
23 60 22 82 -2z m-135 -70 c0 -29 -4 -40 -15 -40 -10 0 -15 10 -15 33 0 19 3
37 7 40 15 16 23 5 23 -33z m230 -6 c0 -45 -23 -41 -25 4 -1 21 3 32 12 32 8
0 13 -13 13 -36z m54 4 c9 -12 16 -26 16 -30 0 -12 -50 -10 -51 2 -1 6 -2 16
-3 23 -5 33 17 36 38 5z m-347 -18 c-1 -12 -8 -20 -19 -20 -16 0 -17 3 -8 20
6 11 15 20 20 20 5 0 8 -9 7 -20z"/>
<path d="M739 1228 c-1 -7 -2 -33 -3 -58 l-1 -45 -117 1 c-101 0 -118 -2 -119
-15 -3 -39 4 -66 19 -78 16 -11 16 -12 1 -13 -11 0 -18 -11 -21 -29 -5 -35 8
-64 25 -55 7 4 9 4 5 -1 -4 -4 -2 -15 5 -23 8 -11 8 -14 0 -9 -29 17 -43 -13
-34 -73 1 -3 48 -5 105 -4 58 1 111 -3 118 -7 7 -5 -34 -8 -94 -6 -67 2 -104
-1 -99 -6 6 -6 54 -9 108 -9 l99 2 -1 -313 c-1 -298 4 -377 25 -377 14 0 12
14 -2 28 -7 7 -10 12 -7 13 2 0 15 3 29 5 19 4 22 2 12 -8 -6 -6 -12 -19 -12
-27 0 -13 2 -13 17 1 14 15 16 54 17 345 l1 328 70 2 c39 1 84 2 102 2 43 1
63 24 63 73 0 36 -2 40 -21 35 l-21 -6 21 23 c26 28 30 96 5 96 -8 0 -13 4
-10 9 3 5 -21 7 -54 5 -33 -2 -60 0 -60 4 0 5 31 8 70 7 74 -2 81 4 72 61 -3
19 -10 20 -113 19 -60 -1 -113 1 -117 4 -5 3 -9 23 -9 44 -2 68 -1 67 -38 67
-21 0 -36 -5 -36 -12z m61 -59 l0 -59 121 0 c119 0 120 0 117 -22 -3 -22 -7
-23 -108 -25 -58 -1 -111 -2 -118 -2 -9 -1 -12 -11 -10 -28 l3 -28 100 -1
c141 -2 135 -1 135 -27 0 -22 -2 -22 -117 -22 l-118 0 -3 -32 -3 -33 120 0
c120 0 121 0 121 -24 0 -23 -1 -23 -117 -22 l-118 0 -3 -337 -2 -337 -25 0
-25 0 0 335 c0 312 -1 335 -17 336 -10 0 -61 2 -113 4 -117 3 -110 1 -110 25
0 18 8 20 118 22 l117 3 0 30 0 30 -115 0 c-112 0 -115 1 -118 23 -4 26 -9 25
128 26 l105 1 3 28 c2 17 -1 27 -10 28 -7 0 -60 1 -118 2 -101 2 -105 3 -108
25 -3 22 -2 22 117 22 l121 0 0 59 c0 56 1 59 25 59 24 0 25 -3 25 -59z m-110
-131 c0 -9 -149 -7 -155 1 -2 4 32 7 76 7 43 -1 79 -4 79 -8z m44 0 c-7 -11
-34 -10 -34 1 0 6 9 9 19 8 11 0 17 -5 15 -9z m166 2 c0 -3 -21 -7 -46 -7 -26
-1 -42 2 -36 6 14 8 82 10 82 1z m-170 -111 c0 -5 -43 -9 -95 -9 -52 0 -95 4
-95 8 0 5 43 9 95 9 52 0 95 -4 95 -8z m120 -5 c0 -12 -4 -12 -20 -4 -11 6
-20 12 -20 13 0 2 9 3 20 4 12 1 20 -4 20 -13z m117 3 c-1 -5 -6 -8 -10 -8 -4
1 -27 1 -52 1 -25 0 -45 4 -45 9 0 6 25 9 55 8 30 -1 54 -6 52 -10z m48 3 c-3
-5 -13 -10 -21 -10 -8 0 -14 5 -14 10 0 6 9 10 21 10 11 0 17 -4 14 -10z m9
-111 c-6 -10 -204 -11 -204 -2 0 5 47 9 104 9 58 0 103 -3 100 -7z"/>
<path d="M305 1205 c43 -38 157 -117 161 -112 4 4 -165 130 -181 135 -5 2 4
-9 20 -23z"/>
<path d="M415 1185 c65 -58 82 -58 19 0 -27 25 -53 45 -59 45 -5 -1 13 -21 40
-45z"/>
<path d="M450 1224 c0 -13 58 -69 65 -63 2 3 -11 21 -30 39 -19 19 -35 29 -35
24z"/>
<path d="M527 1200 c12 -19 27 -36 34 -39 7 -2 2 10 -10 27 -31 44 -50 53 -24
12z"/>
<path d="M581 1190 c12 -22 24 -38 26 -36 6 6 -30 76 -39 76 -5 0 1 -18 13
-40z"/>
<path d="M610 1223 c1 -12 39 -79 40 -70 0 12 -28 77 -34 77 -4 0 -6 -3 -6 -7z"/>
<path d="M663 1195 c6 -19 13 -35 17 -35 4 0 2 16 -4 35 -6 19 -14 35 -18 35
-3 0 -1 -16 5 -35z"/>
<path d="M866 1175 c-3 -8 -1 -15 3 -15 5 0 11 7 15 15 3 8 1 15 -3 15 -5 0
-11 -7 -15 -15z"/>
<path d="M906 1175 c-3 -8 -1 -15 4 -15 6 0 10 7 10 15 0 8 -2 15 -4 15 -2 0
-6 -7 -10 -15z"/>
<path d="M947 1183 c-4 -3 -7 -11 -7 -17 0 -6 5 -5 12 2 6 6 9 14 7 17 -3 3
-9 2 -12 -2z"/>
<path d="M990 1175 c-8 -9 -8 -15 -2 -15 12 0 26 19 19 26 -2 2 -10 -2 -17
-11z"/>
<path d="M1040 1175 c-7 -8 -8 -15 -2 -15 5 0 15 7 22 15 7 8 8 15 2 15 -5 0
-15 -7 -22 -15z"/>
<path d="M1097 1168 c-27 -29 -17 -30 16 -2 15 13 22 24 15 23 -7 0 -21 -10
-31 -21z"/>
<path d="M1142 1144 c-35 -25 -61 -48 -58 -51 2 -3 31 14 63 38 71 51 80 59
68 59 -6 0 -38 -21 -73 -46z"/>
<path d="M243 1173 c6 -9 51 -36 221 -131 5 -3 6 0 3 5 -6 9 -51 36 -221 131
-5 3 -6 0 -3 -5z"/>
<path d="M1196 1120 c-99 -59 -150 -97 -87 -65 53 27 201 115 201 120 0 10
-18 1 -114 -55z"/>
<path d="M212 1115 c6 -7 248 -115 256 -115 18 0 -25 23 -129 69 -108 47 -140
59 -127 46z"/>
<path d="M1260 1091 c-150 -66 -183 -82 -178 -86 4 -4 246 100 257 111 11 10
-19 1 -79 -25z"/>
<path d="M190 1055 c0 -6 254 -85 271 -84 8 0 -20 11 -61 25 -41 13 -102 33
-136 44 -63 21 -74 23 -74 15z"/>
<path d="M1210 1017 c-134 -45 -135 -45 -129 -51 5 -4 268 80 277 88 12 13
-29 2 -148 -37z"/>
<path d="M171 995 c5 -4 276 -65 293 -65 31 0 -18 14 -140 40 -140 30 -161 34
-153 25z"/>
<path d="M1310 988 c-138 -28 -230 -51 -226 -56 3 -2 36 3 73 11 37 9 103 23
146 32 42 9 77 18 77 21 0 5 -16 4 -70 -8z"/>
<path d="M170 931 c0 -6 21 -11 48 -12 26 0 55 -2 65 -4 9 -2 50 -6 90 -10 39
-4 75 -9 80 -12 4 -2 7 1 7 6 0 6 -13 12 -30 12 -16 1 -33 2 -37 3 -5 1 -48 6
-98 10 -50 4 -98 10 -107 12 -10 3 -18 1 -18 -5z"/>
<path d="M1359 936 c-2 -2 -40 -7 -84 -11 -44 -3 -107 -10 -140 -15 l-60 -9
75 4 c137 8 215 17 230 26 13 7 13 8 -1 9 -9 0 -18 -2 -20 -4z"/>
<path d="M160 870 c0 -6 7 -10 15 -10 8 0 15 2 15 4 0 2 -7 6 -15 10 -8 3 -15
1 -15 -4z"/>
<path d="M200 868 c0 -4 17 -8 37 -8 20 0 34 3 30 6 -9 9 -67 11 -67 2z"/>
<path d="M280 868 c0 -5 41 -8 92 -8 50 0 88 3 85 7 -10 9 -177 10 -177 1z"/>
<path d="M1090 868 c0 -4 68 -7 152 -7 83 -1 148 2 145 6 -9 9 -297 10 -297 1z"/>
<path d="M146 680 c0 -55 3 -102 6 -105 3 -3 4 40 4 95 l-1 101 245 -2 c135
-1 253 -5 263 -10 16 -9 17 -36 17 -342 0 -281 -2 -336 -15 -354 -15 -21 -21
-22 -262 -23 -136 0 -245 2 -242 4 2 3 109 6 236 7 256 2 273 6 273 59 0 38
-39 67 -69 51 -12 -7 -104 -12 -233 -13 -184 -2 -197 -3 -98 -8 63 -3 107 -7
98 -8 -9 -1 -19 -10 -21 -20 -4 -16 -5 -16 -6 0 -1 15 -12 18 -76 17 -63 -1
-75 -4 -76 -17 0 -14 -2 -13 -10 3 -9 18 -9 18 -5 -4 3 -14 -3 -31 -14 -44
-11 -11 -17 -24 -14 -29 3 -5 117 -8 253 -8 233 1 250 2 270 21 21 19 21 26
21 358 0 309 -1 339 -17 353 -15 14 -58 16 -273 17 l-256 2 2 -101z m510 -584
c-6 -23 -46 -32 -46 -9 0 7 9 10 20 8 12 -2 18 0 15 6 -4 5 -11 7 -16 4 -5 -4
-9 -2 -9 4 0 5 8 12 18 14 13 4 12 5 -4 6 -20 1 -40 -22 -36 -41 1 -5 -17 -8
-40 -7 -36 0 -39 2 -20 9 12 5 22 12 22 15 0 4 -4 3 -10 0 -5 -3 -10 -1 -10 6
0 7 11 10 30 7 17 -3 30 -1 30 4 0 5 -26 8 -57 6 -33 -2 -57 -7 -56 -13 2 -14
-35 -17 -42 -4 -4 5 3 9 15 9 12 0 19 4 15 10 -3 5 29 10 82 12 95 3 110 -4
99 -46z m-208 37 c-10 -2 -19 -12 -19 -21 -1 -16 -2 -16 -6 0 -2 9 -12 19 -21
21 -9 3 1 5 23 5 22 0 32 -2 23 -5z m-208 -21 c0 -4 -9 -8 -20 -9 -11 -1 -20
2 -20 8 0 5 9 9 20 9 11 0 20 -4 20 -8z m40 -3 c0 -5 -5 -7 -12 -3 -7 4 -8 3
-4 -4 4 -7 14 -12 22 -12 8 0 14 -4 14 -9 0 -5 10 -12 23 -14 19 -4 18 -4 -5
-6 -16 0 -28 3 -28 8 0 5 -9 11 -20 14 -22 6 -28 -8 -7 -16 7 -3 5 -6 -5 -6
-20 -1 -23 12 -8 40 11 20 30 26 30 8z m50 3 c0 -4 -9 -8 -20 -9 -11 -1 -20 2
-20 8 0 5 9 9 20 9 11 0 20 -4 20 -8z m84 -8 c4 -9 13 -14 21 -10 10 3 15 -1
15 -12 1 -16 1 -16 11 1 6 9 14 15 20 12 5 -4 12 1 15 9 7 18 34 22 34 5 0 -5
-4 -7 -10 -4 -5 3 -10 -3 -10 -14 0 -10 6 -22 13 -24 6 -3 2 -6 -11 -6 -13 -1
-21 3 -18 8 3 5 -1 12 -10 15 -11 4 -15 2 -11 -7 3 -8 -4 -14 -20 -15 -13 -1
-22 2 -19 7 3 5 -5 11 -19 13 -17 4 -25 1 -25 -8 0 -8 -9 -14 -21 -14 -11 0
-17 5 -14 10 4 6 -5 10 -19 10 -14 0 -26 4 -26 8 0 15 60 8 60 -8 1 -12 3 -11
11 3 6 9 15 14 21 11 7 -4 8 -2 4 4 -4 6 -13 9 -20 6 -8 -3 -17 -1 -21 5 -4 7
3 11 18 11 14 0 28 -7 31 -16z m-187 -24 c-1 -15 -8 -20 -30 -20 -23 0 -26 2
-15 14 8 8 15 10 19 4 3 -5 9 -3 12 6 9 22 16 20 14 -4z m346 -17 c-7 -2 -19
-2 -25 0 -7 3 -2 5 12 5 14 0 19 -2 13 -5z"/>
<path d="M570 99 c0 -5 5 -7 10 -4 6 3 10 8 10 11 0 2 -4 4 -10 4 -5 0 -10 -5
-10 -11z"/>
<path d="M874 766 c-15 -16 -23 -65 -13 -72 5 -3 9 8 9 24 0 37 22 56 54 48
l24 -6 0 -286 c0 -157 3 -288 6 -291 3 -4 6 127 6 291 l0 297 224 -3 c123 -2
222 1 219 5 -8 13 -516 7 -529 -7z"/>
<path d="M592 463 l-2 -293 -215 0 c-165 0 -215 3 -216 13 -1 6 -2 40 -2 75
-1 34 -4 62 -8 62 -3 0 -5 -28 -3 -63 1 -34 3 -70 3 -79 1 -17 18 -18 221 -18
169 0 222 3 225 13 3 7 4 140 2 297 l-2 285 -3 -292z"/>
<path d="M1393 665 c-1 -25 2 -45 6 -45 8 0 7 78 -1 85 -2 3 -5 -15 -5 -40z"/>
<path d="M855 670 c-3 -5 -1 -10 4 -10 6 0 11 5 11 10 0 6 -2 10 -4 10 -3 0
-8 -4 -11 -10z"/>
<path d="M857 606 c-4 -10 -5 -21 -2 -24 9 -9 17 6 13 25 -3 17 -4 17 -11 -1z"/>
<path d="M320 485 l0 -114 38 2 c25 1 37 7 38 17 1 8 2 23 3 33 1 13 10 17 41
17 39 0 40 1 41 38 4 121 5 115 -19 119 -14 2 -21 -1 -17 -7 3 -5 3 -10 -2
-11 -4 0 -16 -2 -25 -4 -10 -2 -20 1 -23 5 -3 5 4 7 15 5 11 -2 20 0 20 4 0
15 -49 9 -54 -6 -4 -8 -13 -13 -20 -10 -8 3 -17 1 -20 -6 -3 -7 -3 -2 0 11 3
12 1 22 -5 22 -7 0 -11 -40 -11 -115z m155 74 c-6 -32 -12 -34 -12 -4 0 14 3
25 8 25 4 0 6 -10 4 -21z m-138 -31 c-3 -8 -6 -5 -6 6 -1 11 2 17 5 13 3 -3 4
-12 1 -19z m60 1 c-9 -6 -14 -15 -11 -21 4 -7 2 -8 -5 -4 -14 9 3 36 23 36 6
0 3 -5 -7 -11z m50 5 c-3 -3 -12 -4 -19 -1 -8 3 -5 6 6 6 11 1 17 -2 13 -5z
m-110 -46 c-3 -8 -6 -5 -6 6 -1 11 2 17 5 13 3 -3 4 -12 1 -19z m90 16 c-3 -3
-12 -4 -19 -1 -8 3 -5 6 6 6 11 1 17 -2 13 -5z m43 -22 c0 -8 -1 -13 -3 -11
-1 2 -9 12 -16 22 -12 15 -12 17 3 11 9 -3 16 -13 16 -22z m-133 -34 c-3 -8
-6 -5 -6 6 -1 11 2 17 5 13 3 -3 4 -12 1 -19z m63 8 c0 -2 -8 -10 -17 -17 -16
-13 -17 -12 -4 4 13 16 21 21 21 13z m63 -3 c-7 -2 -19 -2 -25 0 -7 3 -2 5 12
5 14 0 19 -2 13 -5z m-126 -60 c-3 -10 -5 -4 -5 12 0 17 2 24 5 18 2 -7 2 -21
0 -30z m46 7 c-6 -22 -18 -26 -29 -8 -4 6 -3 8 3 5 6 -4 13 0 17 8 8 22 15 18
9 -5z"/>
<path d="M350 590 c0 -5 5 -10 10 -10 6 0 10 5 10 10 0 6 -4 10 -10 10 -5 0
-10 -4 -10 -10z"/>
<path d="M1088 592 c-16 -3 -18 -16 -18 -107 l0 -103 27 -5 c36 -7 43 -2 43
31 l1 27 20 -27 c17 -23 28 -28 65 -28 l44 0 -26 40 c-21 31 -24 44 -16 52 16
16 15 70 -2 93 -13 18 -98 35 -138 27z"/>
<path d="M856 555 c-3 -8 -1 -15 4 -15 6 0 10 7 10 15 0 8 -2 15 -4 15 -2 0
-6 -7 -10 -15z"/>
<path d="M143 540 c5 -29 13 -33 13 -5 0 14 -4 25 -8 25 -4 0 -7 -9 -5 -20z"/>
<path d="M1393 505 c-1 -25 2 -45 6 -45 8 0 7 78 -1 85 -2 3 -5 -15 -5 -40z"/>
<path d="M859 528 c-5 -17 -2 -71 4 -75 4 -3 7 14 6 36 -3 34 -6 50 -10 39z"/>
<path d="M143 480 c5 -29 13 -33 13 -5 0 14 -4 25 -8 25 -4 0 -7 -9 -5 -20z"/>
<path d="M143 420 c5 -29 13 -33 13 -5 0 14 -4 25 -8 25 -4 0 -7 -9 -5 -20z"/>
<path d="M858 428 c-3 -7 -1 -24 3 -38 6 -22 7 -20 8 13 1 38 -3 47 -11 25z"/>
<path d="M1393 345 c-1 -25 2 -45 6 -45 8 0 7 78 -1 85 -2 3 -5 -15 -5 -40z"/>
<path d="M143 360 c5 -29 13 -33 13 -5 0 14 -4 25 -8 25 -4 0 -7 -9 -5 -20z"/>
<path d="M857 328 c7 -46 13 -48 13 -5 0 21 -4 37 -9 37 -5 0 -7 -15 -4 -32z"/>
<path d="M856 250 c1 -44 14 -50 14 -7 0 21 -3 37 -7 37 -5 0 -8 -14 -7 -30z"/>
<path d="M1392 209 c0 -17 -2 -33 -4 -34 -2 -2 -111 -5 -241 -6 -192 -1 -241
-4 -253 -16 -16 -16 -19 -37 -4 -28 6 4 10 -6 9 -22 0 -24 -1 -25 -8 -8 l-8
20 -5 -20 c-4 -13 -6 -8 -7 15 -1 24 -4 31 -10 21 -9 -14 -3 -44 16 -76 11
-19 24 -20 258 -23 136 -2 254 -1 261 2 12 5 10 13 -10 43 -19 28 -22 39 -13
45 8 5 4 8 -11 8 -13 0 -21 -4 -17 -9 3 -5 1 -12 -5 -16 -5 -3 -10 0 -10 8 0
12 -35 15 -212 16 -116 1 -214 4 -217 6 -2 3 1 11 9 18 10 9 11 9 6 0 -6 -10
44 -13 236 -11 l243 2 -220 6 -220 6 223 2 c169 1 222 5 223 15 1 6 2 24 3 40
2 15 0 27 -4 27 -4 0 -7 -14 -8 -31z m-462 -99 c0 -5 -4 -10 -10 -10 -5 0 -10
5 -10 10 0 6 5 10 10 10 6 0 10 -4 10 -10z m40 -4 c0 -9 11 -13 34 -11 23 1
39 -4 50 -17 15 -17 14 -18 -5 -18 -12 0 -17 4 -13 11 4 7 -8 10 -38 8 -24 -2
-49 1 -56 5 -7 4 -12 2 -12 -3 0 -6 -7 -11 -16 -11 -8 0 -13 -4 -10 -9 3 -5
113 -10 243 -10 130 -1 239 -4 242 -7 10 -9 -473 -3 -491 7 -10 5 -18 14 -18
20 0 6 4 8 9 5 4 -3 19 5 32 18 27 27 49 33 49 12z m60 6 c0 -10 -36 -9 -46 1
-4 4 5 7 19 7 15 0 27 -4 27 -8z m117 -5 c3 -6 1 -7 -5 -3 -7 4 -12 2 -12 -4
0 -7 13 -10 34 -7 25 3 38 -1 50 -14 15 -18 14 -19 -5 -19 -11 0 -17 5 -14 10
4 6 -12 10 -40 10 -34 0 -46 4 -42 13 3 8 -5 12 -24 12 -15 1 -26 -2 -23 -5 3
-3 9 -5 13 -5 4 0 15 -8 25 -18 15 -15 15 -17 2 -17 -9 0 -16 7 -16 15 0 8 -6
12 -14 9 -8 -3 -19 3 -25 15 -10 19 -8 20 39 19 27 0 53 -5 57 -11z m49 6
c-10 -11 -36 -12 -36 -2 0 5 10 9 22 9 12 0 18 -3 14 -7z m89 -3 c3 -4 -11 -7
-30 -5 -20 1 -33 -1 -29 -4 3 -3 9 -6 13 -6 4 0 15 -8 25 -18 15 -15 15 -17 2
-17 -9 0 -16 7 -16 15 0 8 -6 12 -14 9 -16 -6 -30 11 -21 25 6 11 64 11 70 1z
m35 0 c0 -5 -2 -10 -4 -10 -3 0 -8 5 -11 10 -3 6 -1 10 4 10 6 0 11 -4 11 -10z
m52 -33 c7 -13 5 -17 -7 -17 -9 0 -13 5 -10 10 4 6 -12 10 -39 10 -25 0 -46 4
-46 8 0 5 21 8 46 7 32 -1 49 -6 56 -18z m-359 -14 c-7 -2 -21 -2 -30 0 -10 3
-4 5 12 5 17 0 24 -2 18 -5z m160 0 c-7 -2 -21 -2 -30 0 -10 3 -4 5 12 5 17 0
24 -2 18 -5z m160 0 c-7 -2 -21 -2 -30 0 -10 3 -4 5 12 5 17 0 24 -2 18 -5z"/>
<path d="M945 101 c-3 -5 -2 -12 3 -15 5 -3 9 1 9 9 0 17 -3 19 -12 6z"/>
<path d="M855 190 c-3 -5 -1 -10 4 -10 6 0 11 5 11 10 0 6 -2 10 -4 10 -3 0
-8 -4 -11 -10z"/>
</g>
</svg>
